<svg xmlns="http://www.w3.org/2000/svg" width="244" height="65" viewBox="0 0 244 65"><defs><style>.a,.c{fill:#00afbb;}.a,.b{fill-rule:evenodd;}.b,.e{fill:#e2af2a;}.c{font-size:25px;font-family:Poppins-ExtraBold, Poppins;font-weight:800;letter-spacing:0.18em;}.d{fill:#0061d1;}.f{fill:#6d6f72;font-size:23px;font-family:Poppins-Medium, Poppins;font-weight:500;}</style></defs><g transform="translate(338 208.5)"><path class="a" d="M301.492,253.7l-25.963,24.728a1.034,1.034,0,0,1-1.39.059,1.2,1.2,0,0,1-.319-1.442L287.264,248.1l-18.206-12.366a1.187,1.187,0,0,1-.451-1.34,1.084,1.084,0,0,1,1.105-.8l23.175,1.5,8.015-15.27a1.057,1.057,0,0,1,1.229-.559,1.141,1.141,0,0,1,.817,1.126v29.846a4.639,4.639,0,0,1-1.457,3.469m-15.987-36.3a5.161,5.161,0,1,1-4.838,5.151A5,5,0,0,1,285.505,217.4Z" transform="translate(-606.551 -425.9)"/><path class="b" d="M340.768,217.4a5.161,5.161,0,1,0,4.837,5.151,5,5,0,0,0-4.837-5.151M324.78,253.7l25.963,24.728a1.034,1.034,0,0,0,1.39.059,1.2,1.2,0,0,0,.319-1.442L339.008,248.1l18.206-12.366a1.189,1.189,0,0,0,.451-1.34,1.085,1.085,0,0,0-1.105-.8l-23.176,1.5-8.015-15.27a1.058,1.058,0,0,0-1.23-.559,1.142,1.142,0,0,0-.817,1.126v29.846A4.642,4.642,0,0,0,324.78,253.7Z" transform="translate(-620.346 -425.9)"/><text class="c" transform="translate(-247 -180.5)"><tspan x="0" y="0">STARS</tspan><tspan class="d" y="0"> </tspan><tspan class="e" y="0">DAY</tspan><tspan class="f"><tspan x="0" y="25">NURSERIES</tspan></tspan></text></g></svg>