<svg xmlns="http://www.w3.org/2000/svg" width="20" height="22.5" viewBox="0 0 20 22.5"><defs><style>.a{fill:#e2af2a;}</style></defs><path class="a" d="M9,12.969a1.336,1.336,0,0,0-1.25,1.406A1.336,1.336,0,0,0,9,15.781a1.336,1.336,0,0,0,1.25-1.406A1.336,1.336,0,0,0,9,12.969Zm6,0a1.336,1.336,0,0,0-1.25,1.406A1.336,1.336,0,0,0,15,15.781a1.336,1.336,0,0,0,1.25-1.406A1.336,1.336,0,0,0,15,12.969ZM12,2C6.48,2,2,7.04,2,13.25S6.48,24.5,12,24.5s10-5.04,10-11.25S17.52,2,12,2Zm0,20.25c-4.41,0-8-4.039-8-9,0-.326.02-.653.05-.967A10.828,10.828,0,0,0,9.26,6.241,9.7,9.7,0,0,0,17.42,11a8.729,8.729,0,0,0,2.25-.293A10,10,0,0,1,20,13.25C20,18.211,16.41,22.25,12,22.25Z" transform="translate(-2 -2)"/></svg>