<svg xmlns="http://www.w3.org/2000/svg" width="39.271" height="36" viewBox="0 0 39.271 36"><defs><style>.a{fill:#798cff;}</style></defs><g transform="translate(-0.001 -1)"><path class="a" d="M3.949,27.4a3.949,3.949,0,0,1-2.793-6.742l.818-.818a1.636,1.636,0,1,1,2.314,2.314l-.818.818a.678.678,0,1,0,.959.959l7.364-7.364a1.636,1.636,0,1,1,2.314,2.314L6.743,26.243A3.937,3.937,0,0,1,3.949,27.4Z" transform="translate(0 9.6)"/><path class="a" d="M22.887,5.5A1.636,1.636,0,0,1,21.73,2.707L22.957,1.48a1.636,1.636,0,0,1,2.314,2.314L24.043,5.021a1.632,1.632,0,0,1-1.157.479Z" transform="translate(13.522 0)"/><path class="a" d="M35.884,2.48A1.6,1.6,0,0,0,34.631,2,44.074,44.074,0,0,0,2.309,19.78a1.636,1.636,0,0,0,1.327,2.594l3.027-.082v1.555a3.2,3.2,0,0,0,3.191,3.191l1.473-.082V28.51A3.2,3.2,0,0,0,14.518,31.7l1.473-.082v3.109a1.636,1.636,0,0,0,2.594,1.327A44.079,44.079,0,0,0,36.36,3.734a1.633,1.633,0,0,0-.476-1.253ZM7.017,19.112a41.978,41.978,0,0,1,20.332-12.6C21.53,10.068,13.965,15.452,9.8,21.419a3.188,3.188,0,0,0-2.783-2.307Zm5.094,4.736c2.98-4.587,8.946-9.712,17.005-14.6-4.888,8.059-10.014,14.025-14.6,17.005a3.2,3.2,0,0,0-2.405-2.405Zm7.141,7.5a3.188,3.188,0,0,0-2.307-2.783C22.913,24.4,28.3,16.834,31.854,11.017A41.981,41.981,0,0,1,19.252,31.347Z" transform="translate(1.272 0.636)"/></g></svg>