<svg xmlns="http://www.w3.org/2000/svg" width="43.631" height="33.109" viewBox="0 0 43.631 33.109"><defs><style>.a{fill:#798cff;}</style></defs><g transform="translate(0 -52.067)"><g transform="translate(0 52.067)"><path class="a" d="M33.581,71.041a1.586,1.586,0,0,0,1.487,1.033h6.977a1.587,1.587,0,1,0,0-3.173H36.169l-3.161-8.484a1.587,1.587,0,0,0-2.945-.072L27.21,67,23.518,53.242a1.586,1.586,0,0,0-3.09.111L16.012,76.287l-3.13-12.378a1.587,1.587,0,0,0-3.024-.168L7.583,69.8h-6a1.587,1.587,0,0,0,0,3.173h7.1a1.587,1.587,0,0,0,1.486-1.031l.88-2.346,3.634,14.375a1.588,1.588,0,0,0,1.537,1.2h.047a1.588,1.588,0,0,0,1.512-1.286l4.461-23.165,3.093,11.522a1.586,1.586,0,0,0,2.989.215l3.1-7.222Z" transform="translate(0 -52.067)"/></g></g></svg>