<svg xmlns="http://www.w3.org/2000/svg" width="40.773" height="43.379" viewBox="0 0 40.773 43.379"><defs><style>.a{fill:#798cff;}</style></defs><g transform="translate(-28.943 20.059) rotate(-19)"><g transform="translate(30.611)"><path class="a" d="M61.1,2.495A13.311,13.311,0,0,0,53.191,0c-2.475,0-4.959,1.17-7.36,2.3C43.6,3.351,41.5,4.342,39.642,4.342a13.9,13.9,0,0,1-6.281-1.612V.012h-2.75V35.2H33.36V23.612a15.976,15.976,0,0,0,6.281,1.351c2.479,0,4.964-1.186,7.367-2.334,2.224-1.062,4.326-2.065,6.182-2.065a10.754,10.754,0,0,1,6.184,1.886L61.611,24.3V2.907ZM58.862,19.013a13.947,13.947,0,0,0-5.671-1.2c-2.479,0-4.964,1.186-7.367,2.334C43.6,21.21,41.5,22.214,39.642,22.214a13.585,13.585,0,0,1-6.213-1.621V5.8a16.288,16.288,0,0,0,6.213,1.29c2.476,0,4.959-1.17,7.361-2.3,2.226-1.049,4.328-2.04,6.188-2.04a11.1,11.1,0,0,1,5.671,1.544V19.013Z" transform="translate(-30.611)"/></g></g></svg>