<svg xmlns="http://www.w3.org/2000/svg" width="36" height="36.002" viewBox="0 0 36 36.002"><defs><style>.a{fill:#798cff;}</style></defs><path class="a" d="M35.723,16.743l-5.782-2.891,5.782-2.891a1.407,1.407,0,0,0,0-2.516L19.128.148a1.408,1.408,0,0,0-1.258,0L1.275,8.446a1.407,1.407,0,0,0,0,2.516l5.782,2.891L1.275,16.743a1.407,1.407,0,0,0,0,2.516L7.057,22.15,1.275,25.041a1.407,1.407,0,0,0,0,2.516l16.595,8.3a1.407,1.407,0,0,0,1.258,0l16.595-8.3a1.407,1.407,0,0,0,0-2.516L29.941,22.15l5.782-2.891A1.407,1.407,0,0,0,35.723,16.743ZM18.5,2.979,31.949,9.7,18.5,16.429,5.049,9.7ZM31.949,26.3,18.5,33.024,5.049,26.3,10.2,23.722l7.668,3.834a1.407,1.407,0,0,0,1.258,0L26.8,23.722ZM18.5,24.726,5.049,18,10.2,15.425l7.668,3.834a1.407,1.407,0,0,0,1.258,0L26.8,15.425,31.949,18Zm0,0" transform="translate(-0.499)"/></svg>