<svg xmlns="http://www.w3.org/2000/svg" width="21.469" height="25.883" viewBox="0 0 21.469 25.883"><defs><style>.a{fill:#798cff;}</style></defs><g transform="translate(-42.238 8)"><g transform="translate(42.238 -8)"><g transform="translate(12.203 18.752)"><path class="a" d="M242.6,299.9l0,0h0Z" transform="translate(-242.604 -299.9)"/></g><g transform="translate(12.206 18.735)"><path class="a" d="M242.657,299.619l-.01.017h0Z" transform="translate(-242.647 -299.619)"/></g><g transform="translate(12.227 18.712)"><path class="a" d="M243,299.245Z" transform="translate(-243.004 -299.244)"/></g><g transform="translate(0 0)"><path class="a" d="M48.328,5.632C50.3,3.978,51.613.252,50.8.089c-1.076-.217-3.412.733-4.541.9-1.6.193-3.346-1.737-4.325-.661-.8.875.571,4.056,2.709,5.441-6.38,3.136-15.347,18.876.3,20.018C66.589,27.369,55.75,8.687,48.328,5.632Z" transform="translate(-36.238 0)"/></g><g transform="translate(12.187 18.769)"><path class="a" d="M242.346,300.169l-.01.017Z" transform="translate(-242.337 -300.169)"/></g></g></g></svg>