<svg xmlns="http://www.w3.org/2000/svg" width="29" height="29" viewBox="0 0 29 29"><defs><style>.a{fill:#798cff;}</style></defs><path class="a" d="M131.527,289.249l-3.214,4.2a3.4,3.4,0,0,1-2.7,1.334h-5.967a.85.85,0,0,1,0-1.7h5.172a2.014,2.014,0,0,0,2.021-2.021,1.982,1.982,0,0,0-1.982-1.944H118.91a4.92,4.92,0,0,0-6.27-.457l-.64.457v9.629h14.775a5.1,5.1,0,0,0,4.288-2.341l3.316-5.158a1.744,1.744,0,0,0-2.852-2Z" transform="translate(-105.656 -271.45)"/><path class="a" d="M3.795,282H.85a.85.85,0,0,0-.85.85v11.328a.85.85,0,0,0,.85.85H3.795a.85.85,0,0,0,.85-.85V282.85A.85.85,0,0,0,3.795,282Z" transform="translate(0 -266.027)"/><path class="a" d="M281.044,82.9a.843.843,0,0,0-.3.507.587.587,0,0,0,.146.568c.047.037.1.073.155.109Z" transform="translate(-264.828 -78.209)"/><path class="a" d="M179.08,14.16A7.08,7.08,0,1,0,172,7.08,7.088,7.088,0,0,0,179.08,14.16Zm-2.143-4.765a.566.566,0,0,1,.784-.164,1.715,1.715,0,0,0,.754.323V7.162a4.178,4.178,0,0,1-.854-.5,1.7,1.7,0,0,1-.56-1.669,1.908,1.908,0,0,1,1.309-1.5l.106-.03V3.115a.566.566,0,0,1,1.133,0v.29a1.967,1.967,0,0,1,1.127.582.566.566,0,0,1-.851.748.78.78,0,0,0-.276-.164V6.4l.3.108A2.027,2.027,0,0,1,181.285,8.8a2.3,2.3,0,0,1-1.678,1.835v.406a.566.566,0,0,1-1.133,0v-.351a2.743,2.743,0,0,1-1.374-.515A.566.566,0,0,1,176.937,9.395Z" transform="translate(-162.258)"/><path class="a" d="M306.87,135.346a.876.876,0,0,0-.56-1.007v1.819A1.171,1.171,0,0,0,306.87,135.346Z" transform="translate(-288.96 -126.73)"/></svg>