<svg xmlns="http://www.w3.org/2000/svg" width="35" height="38.182" viewBox="0 0 35 38.182"><defs><style>.a{fill:#798cff;}</style></defs><path class="a" d="M18.5,0C8.851,0,1,7.584,1,16.9v2.188a1.59,1.59,0,0,0,2.342,1.4c3.134-1.68,5.746-1.7,8.222-.073a1.591,1.591,0,0,0,1.564.1,12.95,12.95,0,0,1,3.78-1.176V33.805a1.192,1.192,0,0,1-2.385,0v-.4a1.591,1.591,0,1,0-3.182,0v.4a4.375,4.375,0,1,0,8.75,0V19.349a12.95,12.95,0,0,1,3.78,1.176,1.591,1.591,0,0,0,1.565-.1c2.475-1.631,5.088-1.607,8.222.073A1.59,1.59,0,0,0,36,19.091V16.9C36,7.584,28.149,0,18.5,0Zm3.917,16.6A14.638,14.638,0,0,0,18.5,16.04a14.583,14.583,0,0,0-3.917.562c.4-8.853,2.825-13.419,3.917-13.419S22.021,7.748,22.417,16.6ZM4.183,16.66A13.815,13.815,0,0,1,13.942,3.907c-1.519,3.21-2.347,8-2.547,12.848A10.057,10.057,0,0,0,4.183,16.66Zm21.422.1c-.2-4.851-1.028-9.638-2.547-12.848A13.815,13.815,0,0,1,32.817,16.66,10.057,10.057,0,0,0,25.6,16.755Z" transform="translate(-1)"/></svg>