<svg xmlns="http://www.w3.org/2000/svg" width="19.187" height="23.384" viewBox="0 0 19.187 23.384"><defs><style>.a{fill:#00afbb;fill-rule:evenodd;}</style></defs><path class="a" d="M336.593-41.616a2.1,2.1,0,0,0,.48-.048,2.433,2.433,0,0,0,1.727-1.415,2.408,2.408,0,0,0,.18-.935h-4.8a2.416,2.416,0,0,0,2.41,2.4Zm7.2-13.191c0-3.681-1.967-6.763-5.4-7.579V-63.2a1.8,1.8,0,0,0-1.8-1.8,1.8,1.8,0,0,0-1.8,1.8v.815c-3.442.815-5.4,3.885-5.4,7.579v6l-2.4,2.4v1.2h19.187v-1.2l-2.4-2.4v-6Z" transform="translate(-327 65)"/></svg>