<svg xmlns="http://www.w3.org/2000/svg" width="52" height="52" viewBox="0 0 52 52"><defs><style>.a{fill:#ebf4ff;}.b{fill:#00afbb;}</style></defs><g transform="translate(-478 -14)"><circle class="a" cx="26" cy="26" r="26" transform="translate(478 14)"/><g transform="translate(489 25)"><path class="b" d="M28.5,12h-6V9A1.417,1.417,0,0,0,21,7.5H16.5V6l6-2.25-6-2.25A1.417,1.417,0,0,0,15,0a1.417,1.417,0,0,0-1.5,1.5v6H9A1.417,1.417,0,0,0,7.5,9v3h-6A1.417,1.417,0,0,0,0,13.5V30H12V24a1.417,1.417,0,0,1,1.5-1.5h3A1.417,1.417,0,0,1,18,24v6H30V13.5A1.417,1.417,0,0,0,28.5,12ZM6,27H3V24H6Zm0-6H3V18H6Zm9-4.5a3,3,0,1,1,3-3A3.009,3.009,0,0,1,15,16.5ZM27,27H24V24h3Zm0-6H24V18h3Z"/></g></g></svg>