<svg xmlns="http://www.w3.org/2000/svg" width="38" height="38" viewBox="0 0 38 38"><defs><style>.a{fill:#fff;stroke:#00afbb;}.b{fill:#00afbb;}.c{stroke:none;}.d{fill:none;}</style></defs><g transform="translate(-1015 -340)"><g class="a" transform="translate(1015 340)"><circle class="c" cx="19" cy="19" r="19"/><circle class="d" cx="19" cy="19" r="18.5"/></g><g transform="translate(1023 349)"><circle class="b" cx="3.2" cy="3.2" r="3.2" transform="translate(7.8 7.745)"/><path class="b" d="M8.3,2,6.653,3.8H3.8A1.805,1.805,0,0,0,2,5.6V16.4a1.805,1.805,0,0,0,1.8,1.8H18.2A1.805,1.805,0,0,0,20,16.4V5.6a1.805,1.805,0,0,0-1.8-1.8H15.347L13.7,2ZM11,15.5A4.5,4.5,0,1,1,15.5,11,4.5,4.5,0,0,1,11,15.5Z"/></g></g></svg>