<svg xmlns="http://www.w3.org/2000/svg" width="58" height="59" viewBox="0 0 58 59">
  <g id="Group_689" data-name="Group 689" transform="translate(-1426 -601)">
    <rect id="Rectangle_2589" data-name="Rectangle 2589" width="58" height="59" rx="10" transform="translate(1426 601)" fill="#fff"/>
    <path id="Icon_awesome-book-reader" data-name="Icon awesome-book-reader" d="M24.239,6.611a6.611,6.611,0,1,0-6.611,6.611A6.611,6.611,0,0,0,24.239,6.611ZM16.085,16.6C12,14.1,5.382,13.414,2.052,13.225A1.905,1.905,0,0,0,0,15.09V30.433A1.894,1.894,0,0,0,1.824,32.3c3.006.158,9.089.735,13.293,2.853a.959.959,0,0,0,1.41-.817V17.392a.916.916,0,0,0-.442-.789ZM33.2,13.225c-3.329.189-9.948.877-14.033,3.378a.933.933,0,0,0-.441.8V34.329a.961.961,0,0,0,1.414.819c4.2-2.115,10.282-2.693,13.288-2.851a1.9,1.9,0,0,0,1.824-1.863V15.09A1.906,1.906,0,0,0,33.2,13.225Z" transform="translate(1437.266 612.848)" fill="#fd2366"/>
  </g>
</svg>
