<svg xmlns="http://www.w3.org/2000/svg" width="18" height="17.998" viewBox="0 0 18 17.998"><defs><style>.a{fill:#767676;}</style></defs><g transform="translate(-435.819 -216.482)"><path class="a" d="M444.809,234.48a9,9,0,1,1,9.01-9A9,9,0,0,1,444.809,234.48Zm7.372-8.988a7.362,7.362,0,1,0-7.287,7.352A7.367,7.367,0,0,0,452.181,225.492Z" transform="translate(0)"/><path class="a" d="M529.1,257.14c0-.744,0-1.488,0-2.232,0-.629.294-.98.8-.987s.823.339.827.961c.009,1.313.018,2.626,0,3.939a1.038,1.038,0,0,0,.357.838c.592.562,1.164,1.147,1.738,1.729.434.44.469.907.11,1.267a.831.831,0,0,1-1.267-.107c-.747-.739-1.5-1.468-2.22-2.236a1.386,1.386,0,0,1-.331-.808C529.074,258.718,529.1,257.928,529.1,257.14Z" transform="translate(-85.099 -34.157)"/></g></svg>