<svg xmlns="http://www.w3.org/2000/svg" width="64" height="65" viewBox="0 0 64 65"><defs><style>.a,.b{fill:#ffd950;}.a{opacity:0.3;}</style></defs><g transform="translate(-985 -286)"><rect class="a" width="64" height="65" rx="10" transform="translate(985 286)"/><path class="b" d="M25.462,18.847V7.616L19.847,2,14.231,7.616v3.744H3V37.565H36.694V18.847ZM10.487,33.822H6.744V30.078h3.744Zm0-7.487H6.744V22.591h3.744Zm0-7.487H6.744V15.1h3.744ZM21.719,33.822H17.975V30.078h3.744Zm0-7.487H17.975V22.591h3.744Zm0-7.487H17.975V15.1h3.744Zm0-7.487H17.975V7.616h3.744ZM32.95,33.822H29.206V30.078H32.95Zm0-7.487H29.206V22.591H32.95Z" transform="translate(996.732 299)"/></g></svg>