<svg xmlns="http://www.w3.org/2000/svg" width="64" height="65" viewBox="0 0 64 65"><defs><style>.a,.b{fill:#ff2366;}.a{opacity:0.17;}</style></defs><g transform="translate(-1214 -274)"><rect class="a" width="64" height="65" rx="10" transform="translate(1214 274)"/><path class="b" d="M25.89,18.02,24.1,16.226l-8.256,8.256L12.254,20.9l-1.793,1.793,5.38,5.38L25.89,18.02ZM30.069,4.384H28.377V1H24.993V4.384H11.459V1H8.075V4.384H6.384A3.368,3.368,0,0,0,3.017,7.767L3,31.452a3.383,3.383,0,0,0,3.384,3.384H30.069a3.394,3.394,0,0,0,3.384-3.384V7.767A3.394,3.394,0,0,0,30.069,4.384Zm0,27.069H6.384V12.843H30.069Z" transform="translate(1228.41 288.071)"/></g></svg>