<svg xmlns="http://www.w3.org/2000/svg" width="64" height="65" viewBox="0 0 64 65"><defs><style>.a,.b{fill:#02bc77;}.a{opacity:0.17;}</style></defs><g transform="translate(-1542 -274)"><rect class="a" width="64" height="65" rx="10" transform="translate(1542 274)"/><path class="b" d="M13.029,17.362A1.969,1.969,0,1,0,15,19.331,1.97,1.97,0,0,0,13.029,17.362Zm9.453,0a1.969,1.969,0,1,0,1.969,1.969A1.97,1.97,0,0,0,22.482,17.362ZM17.756,2A15.756,15.756,0,1,0,33.511,17.756,15.761,15.761,0,0,0,17.756,2Zm0,28.36a12.621,12.621,0,0,1-12.6-12.6A12.774,12.774,0,0,1,5.23,16.4,15.853,15.853,0,0,0,13.439,7.94,15.715,15.715,0,0,0,26.3,14.6a15.378,15.378,0,0,0,3.545-.41A12.585,12.585,0,0,1,17.756,30.36Z" transform="translate(1556.072 288.411)"/></g></svg>