<svg xmlns="http://www.w3.org/2000/svg" width="64" height="65" viewBox="0 0 64 65"><defs><style>.a,.b{fill:#ffd950;}.a{opacity:0.3;}</style></defs><g transform="translate(-885 -274)"><rect class="a" width="64" height="65" rx="10" transform="translate(885 274)"/><path class="b" d="M29.7,16.48a5.74,5.74,0,1,0-5.74-5.74A5.716,5.716,0,0,0,29.7,16.48Zm-15.306,0a5.74,5.74,0,1,0-5.74-5.74A5.716,5.716,0,0,0,14.393,16.48Zm0,3.827C9.935,20.306,1,22.545,1,27v4.783H27.786V27C27.786,22.545,18.851,20.306,14.393,20.306Zm15.306,0c-.555,0-1.186.038-1.856.1A8.074,8.074,0,0,1,31.612,27v4.783h11.48V27C43.092,22.545,34.157,20.306,29.7,20.306Z" transform="translate(894.715 288.089)"/></g></svg>