<svg xmlns="http://www.w3.org/2000/svg" width="58" height="59" viewBox="0 0 58 59">
  <g id="Group_690" data-name="Group 690" transform="translate(-1426 -508)">
    <rect id="Rectangle_221" data-name="Rectangle 221" width="58" height="59" rx="10" transform="translate(1426 508)" fill="#fff"/>
    <g id="Layer_2" data-name="Layer 2" transform="translate(1440.792 523.652)">
      <g id="invisible_box" data-name="invisible box" transform="translate(0 0)">
        <rect id="Rectangle_2588" data-name="Rectangle 2588" width="28" height="28" transform="translate(0.208 0.348)" fill="none"/>
      </g>
      <g id="icons_Q2" data-name="icons Q2" transform="translate(4.644 1.097)">
        <path id="Path_6551" data-name="Path 6551" d="M25.736,4.365H20.947V3.182A1.182,1.182,0,0,0,19.765,2h-4.73a1.182,1.182,0,0,0-1.182,1.182V4.365H9.182A1.182,1.182,0,0,0,8,5.547V26.83a1.182,1.182,0,0,0,1.182,1.182H25.736a1.182,1.182,0,0,0,1.182-1.182V5.547A1.182,1.182,0,0,0,25.736,4.365Zm-8.277,4.73a4.73,4.73,0,1,1-4.73,4.73A4.73,4.73,0,0,1,17.459,9.094Zm7.094,16.554H10.365V23.993a14.248,14.248,0,0,1,14.189,0Z" transform="translate(-8 -2)" fill="#4791fc"/>
      </g>
    </g>
  </g>
</svg>
